<svg xmlns="http://www.w3.org/2000/svg" viewBox="0 0 24 24" fill="none" stroke="currentColor" stroke-width="1.5" stroke-linecap="round" stroke-linejoin="round">
  <!-- Brain outline -->
  <path d="M12 2C9.5 2 7.5 3.5 7 5.5C5.5 5 4 6.5 4 8.5C4 10 5 11.5 6 12C5.5 13 6 15 7.5 15.5C7.5 17 9 18.5 10.5 18.5C11 18.5 11.5 18.3 12 18"/>
  <path d="M12 2C14.5 2 16.5 3.5 17 5.5C18.5 5 20 6.5 20 8.5C20 10 19 11.5 18 12C18.5 13 18 15 16.5 15.5C16.5 17 15 18.5 13.5 18.5C13 18.5 12.5 18.3 12 18"/>
  <!-- Center line -->
  <line x1="12" y1="2" x2="12" y2="18"/>
  <!-- Lightbulb rays -->
  <line x1="12" y1="20" x2="12" y2="22"/>
  <line x1="10" y1="21" x2="14" y2="21"/>
</svg>
